# xmcd CD database file
#
# Track frame offsets:
#	150
#	11892
#	24615
#	38482
#	50420
#	63140
#	73192
#	106492
#	116557
#	128272
#	139607
#	150280
#	162847
#	172750
#	182225
#	197540
#	208130
#	221927
#
# Disc length: 3191 seconds
#
# Revision: 2
# Processed by: cddbd v1.5.2PL0 Copyright (c) Steve Scherf et al.
# Submitted via: CDex 1.70beta2
#
DISCID=f30c7512
DTITLE=Various Artist - Country Nights
DYEAR=1993
DGENRE=Country
TTITLE0=Patsy Cline - I've loved and lost again
TTITLE1=Roger Miller - The last word in lonesome is me
TTITLE2=The Kendalls - Crying time
TTITLE3=Conway Twitty - (Lying here with) Linda on my mind
TTITLE4=Jerry Wallace - In the misty moonlight
TTITLE5=Jim Reeves - He'll have to go
TTITLE6=Loretta Lynn - Medley
TTITLE7=Brenda Lee - I'm sorry
TTITLE8=Guy Mitchell - Heartaches by the number
TTITLE9=George Jones - I can't change overnight
TTITLE10=Johnny Tillotson - Send me the pillow
TTITLE11=Willie Nelson - Shelter of your arms
TTITLE12=Faron Young - Hello Walls
TTITLE13=Charley Pride - Kiss an angel good morning
TTITLE14=Billie Jo Spears - Blanket on the ground
TTITLE15=Don Gibson - Oh! Lonesome me
TTITLE16=Freddy Fender - Wasted days and wasted nights
TTITLE17=Billie Jo Spears - Why don't we go dancing
EXTD=YEAR: 1993
EXTT0=
EXTT1=
EXTT2=
EXTT3=
EXTT4=
EXTT5=
EXTT6=
EXTT7=
EXTT8=
EXTT9=
EXTT10=
EXTT11=
EXTT12=
EXTT13=
EXTT14=
EXTT15=
EXTT16=
EXTT17=
PLAYORDER=
